<svg width="11" height="6" viewBox="0 0 11 6" fill="none" xmlns="http://www.w3.org/2000/svg">
<path d="M5.01788 0.00176521C5.18481 0.00143904 5.34659 0.0595784 5.47513 0.166091L9.76192 3.73841C9.90782 3.85968 9.99958 4.03395 10.017 4.22287C10.0344 4.41179 9.97607 4.5999 9.8548 4.7458C9.73353 4.89171 9.55926 4.98346 9.37034 5.00088C9.18141 5.0183 8.99331 4.95996 8.8474 4.83869L5.01788 1.63789L1.18835 4.72437C1.11527 4.78372 1.03118 4.82804 0.940915 4.85478C0.850651 4.88153 0.755991 4.89017 0.662375 4.88021C0.568761 4.87025 0.478036 4.84189 0.395418 4.79675C0.312799 4.75162 0.239916 4.6906 0.180957 4.6172C0.115526 4.54374 0.0659713 4.45756 0.0353975 4.36405C0.00482457 4.27055 -0.00610931 4.17174 0.00328151 4.07381C0.0126714 3.97588 0.0421828 3.88095 0.0899686 3.79496C0.137754 3.70897 0.202784 3.63377 0.280983 3.57408L4.56776 0.123224C4.7 0.0335474 4.85848 -0.00921681 5.01788 0.00176521Z" fill="#6F6E6E"/>
</svg>
